<svg width="321" height="321" xmlns="http://www.w3.org/2000/svg" xmlns:xlink="http://www.w3.org/1999/xlink" xml:space="preserve" overflow="hidden"><g transform="translate(-687 -1466)"><g><path d="M242.036 256.679C251.688 256.679 259.515 248.854 259.515 239.202 259.515 229.544 251.688 221.72 242.036 221.72 232.384 221.72 224.557 229.544 224.557 239.202 224.557 248.854 232.384 256.679 242.036 256.679ZM119.091 191.863C128.185 200.961 140.76 206.588 154.648 206.588 168.531 206.588 181.106 200.961 190.199 191.863 199.299 182.77 204.923 170.198 204.923 156.309 204.923 142.425 199.299 129.852 190.199 120.755 181.106 111.661 168.531 106.031 154.648 106.031 140.76 106.031 128.185 111.661 119.091 120.755 109.998 129.852 104.366 142.425 104.366 156.309 104.366 170.198 109.998 182.77 119.091 191.863ZM154.648 233.153C175.866 233.153 195.076 224.551 208.978 210.644 222.887 196.74 231.488 177.528 231.488 156.309 231.488 135.096 222.887 115.881 208.978 101.979 195.076 88.0718 175.866 79.4671 154.648 79.4671 133.431 79.4671 114.222 88.0718 100.313 101.979 86.4069 115.881 77.8028 135.096 77.8028 156.309 77.8028 177.528 86.4069 196.74 100.313 210.644 114.222 224.551 133.431 233.153 154.648 233.153ZM85.7925 287.748 223.5 287.748C240.702 287.748 256.349 280.702 267.692 269.353 279.041 258.01 286.087 242.363 286.087 225.165L286.087 87.456C286.087 70.2595 279.041 54.612 267.692 43.268 256.349 31.9208 240.702 24.8731 223.5 24.8731L85.7925 24.8731C68.5938 24.8731 52.9473 31.9208 41.6025 43.268 30.2563 54.612 23.2108 70.2595 23.2108 87.456L23.2108 225.165C23.2108 242.363 30.2563 258.01 41.6025 269.353 52.9473 280.702 68.5938 287.748 85.7925 287.748ZM223.5 314.312 85.7925 314.312C61.2697 314.312 38.9742 304.284 22.8236 288.132 6.67771 271.984-3.35508 249.693-3.35508 225.165L-3.35508 87.456C-3.35508 62.9332 6.67771 40.6392 22.8236 24.4892 38.9742 8.33888 61.2697-1.68906 85.7925-1.68906L223.5-1.68906C248.031-1.68906 270.326 8.33888 286.471 24.4892 302.623 40.6392 312.645 62.9332 312.645 87.456L312.645 225.165C312.645 249.693 302.623 271.984 286.471 288.132 270.326 304.284 248.031 314.312 223.5 314.312" fill="#100F0D" fill-rule="evenodd" fill-opacity="1" transform="matrix(1 0 0 -1 692 1785)"/></g></g></svg>